export default {
  "startTime": 1509335576653,
  "data": [
    {
      "header": 150,
      "timestamp": 244,
      "status": 147,
      "note": 52,
      "velocity": 93,
      "fret": 2,
      "stringId": 3,
      "playedAt": 1509335578881
    },
    {
      "header": 156,
      "timestamp": 229,
      "status": 147,
      "note": 52,
      "velocity": 99,
      "fret": 2,
      "stringId": 3,
      "playedAt": 1509335579633
    },
    {
      "header": 158,
      "timestamp": 219,
      "status": 147,
      "note": 55,
      "velocity": 99,
      "fret": 5,
      "stringId": 3,
      "playedAt": 1509335579880
    },
    {
      "header": 161,
      "timestamp": 234,
      "status": 147,
      "note": 52,
      "velocity": 103,
      "fret": 2,
      "stringId": 3,
      "playedAt": 1509335580273
    },
    {
      "header": 164,
      "timestamp": 214,
      "status": 147,
      "note": 50,
      "velocity": 77,
      "fret": 0,
      "stringId": 3,
      "playedAt": 1509335580634
    },
    {
      "header": 167,
      "timestamp": 160,
      "status": 148,
      "note": 48,
      "velocity": 80,
      "fret": 3,
      "stringId": 4,
      "playedAt": 1509335580971
    },
    {
      "header": 174,
      "timestamp": 253,
      "status": 148,
      "note": 47,
      "velocity": 101,
      "fret": 2,
      "stringId": 4,
      "playedAt": 1509335581961
    },
    {
      "header": 183,
      "timestamp": 156,
      "status": 147,
      "note": 52,
      "velocity": 125,
      "fret": 2,
      "stringId": 3,
      "playedAt": 1509335583007
    },
    {
      "header": 189,
      "timestamp": 157,
      "status": 147,
      "note": 52,
      "velocity": 125,
      "fret": 2,
      "stringId": 3,
      "playedAt": 1509335583795
    },
    {
      "header": 191,
      "timestamp": 188,
      "status": 147,
      "note": 55,
      "velocity": 121,
      "fret": 5,
      "stringId": 3,
      "playedAt": 1509335584065
    },
    {
      "header": 130,
      "timestamp": 179,
      "status": 147,
      "note": 52,
      "velocity": 109,
      "fret": 2,
      "stringId": 3,
      "playedAt": 1509335584447
    },
    {
      "header": 133,
      "timestamp": 155,
      "status": 147,
      "note": 50,
      "velocity": 99,
      "fret": 0,
      "stringId": 3,
      "playedAt": 1509335584807
    },
    {
      "header": 135,
      "timestamp": 196,
      "status": 148,
      "note": 48,
      "velocity": 120,
      "fret": 3,
      "stringId": 4,
      "playedAt": 1509335585100
    },
    {
      "header": 143,
      "timestamp": 210,
      "status": 148,
      "note": 47,
      "velocity": 91,
      "fret": 2,
      "stringId": 4,
      "playedAt": 1509335586134
    },
    {
      "header": 151,
      "timestamp": 239,
      "status": 147,
      "note": 52,
      "velocity": 113,
      "fret": 2,
      "stringId": 3,
      "playedAt": 1509335587192
    },
    {
      "header": 157,
      "timestamp": 197,
      "status": 147,
      "note": 52,
      "velocity": 107,
      "fret": 2,
      "stringId": 3,
      "playedAt": 1509335587913
    },
    {
      "header": 159,
      "timestamp": 186,
      "status": 147,
      "note": 55,
      "velocity": 107,
      "fret": 5,
      "stringId": 3,
      "playedAt": 1509335588160
    },
    {
      "header": 162,
      "timestamp": 193,
      "status": 147,
      "note": 52,
      "velocity": 99,
      "fret": 2,
      "stringId": 3,
      "playedAt": 1509335588553
    },
    {
      "header": 165,
      "timestamp": 169,
      "status": 147,
      "note": 50,
      "velocity": 95,
      "fret": 0,
      "stringId": 3,
      "playedAt": 1509335588913
    },
    {
      "header": 167,
      "timestamp": 225,
      "status": 148,
      "note": 48,
      "velocity": 108,
      "fret": 3,
      "stringId": 4,
      "playedAt": 1509335589229
    },
    {
      "header": 175,
      "timestamp": 243,
      "status": 148,
      "note": 47,
      "velocity": 112,
      "fret": 2,
      "stringId": 4,
      "playedAt": 1509335590264
    },
    {
      "header": 183,
      "timestamp": 252,
      "status": 147,
      "note": 52,
      "velocity": 125,
      "fret": 2,
      "stringId": 3,
      "playedAt": 1509335591299
    },
    {
      "header": 190,
      "timestamp": 132,
      "status": 147,
      "note": 52,
      "velocity": 111,
      "fret": 2,
      "stringId": 3,
      "playedAt": 1509335592076
    },
    {
      "header": 191,
      "timestamp": 235,
      "status": 147,
      "note": 55,
      "velocity": 111,
      "fret": 5,
      "stringId": 3,
      "playedAt": 1509335592311
    },
    {
      "header": 131,
      "timestamp": 150,
      "status": 147,
      "note": 52,
      "velocity": 99,
      "fret": 2,
      "stringId": 3,
      "playedAt": 1509335592750
    },
    {
      "header": 133,
      "timestamp": 227,
      "status": 147,
      "note": 50,
      "velocity": 97,
      "fret": 0,
      "stringId": 3,
      "playedAt": 1509335593064
    },
    {
      "header": 136,
      "timestamp": 134,
      "status": 148,
      "note": 48,
      "velocity": 125,
      "fret": 3,
      "stringId": 4,
      "playedAt": 1509335593358
    },
    {
      "header": 144,
      "timestamp": 161,
      "status": 148,
      "note": 47,
      "velocity": 106,
      "fret": 2,
      "stringId": 4,
      "playedAt": 1509335594404
    },
    {
      "header": 152,
      "timestamp": 139,
      "status": 147,
      "note": 52,
      "velocity": 113,
      "fret": 2,
      "stringId": 3,
      "playedAt": 1509335595416
    },
    {
      "header": 158,
      "timestamp": 138,
      "status": 147,
      "note": 52,
      "velocity": 111,
      "fret": 2,
      "stringId": 3,
      "playedAt": 1509335596181
    },
    {
      "header": 159,
      "timestamp": 248,
      "status": 147,
      "note": 55,
      "velocity": 111,
      "fret": 5,
      "stringId": 3,
      "playedAt": 1509335596419
    },
    {
      "header": 162,
      "timestamp": 254,
      "status": 147,
      "note": 52,
      "velocity": 111,
      "fret": 2,
      "stringId": 3,
      "playedAt": 1509335596811
    },
    {
      "header": 165,
      "timestamp": 243,
      "status": 147,
      "note": 50,
      "velocity": 107,
      "fret": 0,
      "stringId": 3,
      "playedAt": 1509335597182
    },
    {
      "header": 168,
      "timestamp": 171,
      "status": 148,
      "note": 48,
      "velocity": 121,
      "fret": 3,
      "stringId": 4,
      "playedAt": 1509335597486
    },
    {
      "header": 176,
      "timestamp": 204,
      "status": 148,
      "note": 47,
      "velocity": 89,
      "fret": 2,
      "stringId": 4,
      "playedAt": 1509335598544
    },
    {
      "header": 184,
      "timestamp": 242,
      "status": 147,
      "note": 52,
      "velocity": 111,
      "fret": 2,
      "stringId": 3,
      "playedAt": 1509335599613
    },
    {
      "header": 190,
      "timestamp": 227,
      "status": 147,
      "note": 52,
      "velocity": 103,
      "fret": 2,
      "stringId": 3,
      "playedAt": 1509335600366
    },
    {
      "header": 128,
      "timestamp": 174,
      "status": 147,
      "note": 55,
      "velocity": 103,
      "fret": 5,
      "stringId": 3,
      "playedAt": 1509335600568
    },
    {
      "header": 131,
      "timestamp": 197,
      "status": 147,
      "note": 52,
      "velocity": 113,
      "fret": 2,
      "stringId": 3,
      "playedAt": 1509335600974
    },
    {
      "header": 134,
      "timestamp": 183,
      "status": 147,
      "note": 50,
      "velocity": 101,
      "fret": 0,
      "stringId": 3,
      "playedAt": 1509335601345
    },
    {
      "header": 136,
      "timestamp": 228,
      "status": 148,
      "note": 48,
      "velocity": 104,
      "fret": 3,
      "stringId": 4,
      "playedAt": 1509335601649
    },
    {
      "header": 144,
      "timestamp": 237,
      "status": 148,
      "note": 47,
      "velocity": 102,
      "fret": 2,
      "stringId": 4,
      "playedAt": 1509335602673
    },
    {
      "header": 152,
      "timestamp": 240,
      "status": 147,
      "note": 52,
      "velocity": 119,
      "fret": 2,
      "stringId": 3,
      "playedAt": 1509335603708
    },
    {
      "header": 131,
      "timestamp": 186,
      "status": 147,
      "note": 52,
      "velocity": 109,
      "fret": 2,
      "stringId": 3,
      "playedAt": 1509335604484
    },
    {
      "header": 133,
      "timestamp": 205,
      "status": 147,
      "note": 55,
      "velocity": 125,
      "fret": 5,
      "stringId": 3,
      "playedAt": 1509335604754
    },
    {
      "header": 136,
      "timestamp": 208,
      "status": 147,
      "note": 52,
      "velocity": 109,
      "fret": 2,
      "stringId": 3,
      "playedAt": 1509335605136
    },
    {
      "header": 139,
      "timestamp": 177,
      "status": 147,
      "note": 50,
      "velocity": 81,
      "fret": 0,
      "stringId": 3,
      "playedAt": 1509335605485
    },
    {
      "header": 141,
      "timestamp": 216,
      "status": 148,
      "note": 48,
      "velocity": 110,
      "fret": 3,
      "stringId": 4,
      "playedAt": 1509335605800
    },
    {
      "header": 149,
      "timestamp": 242,
      "status": 148,
      "note": 47,
      "velocity": 89,
      "fret": 2,
      "stringId": 4,
      "playedAt": 1509335606835
    },
    {
      "header": 157,
      "timestamp": 226,
      "status": 147,
      "note": 52,
      "velocity": 99,
      "fret": 2,
      "stringId": 3,
      "playedAt": 1509335607836
    },
    {
      "header": 163,
      "timestamp": 219,
      "status": 147,
      "note": 52,
      "velocity": 103,
      "fret": 2,
      "stringId": 3,
      "playedAt": 1509335608602
    },
    {
      "header": 165,
      "timestamp": 187,
      "status": 147,
      "note": 55,
      "velocity": 103,
      "fret": 5,
      "stringId": 3,
      "playedAt": 1509335608826
    },
    {
      "header": 168,
      "timestamp": 239,
      "status": 147,
      "note": 52,
      "velocity": 97,
      "fret": 2,
      "stringId": 3,
      "playedAt": 1509335609265
    },
    {
      "header": 171,
      "timestamp": 232,
      "status": 147,
      "note": 50,
      "velocity": 75,
      "fret": 0,
      "stringId": 3,
      "playedAt": 1509335609636
    },
    {
      "header": 174,
      "timestamp": 137,
      "status": 148,
      "note": 48,
      "velocity": 106,
      "fret": 3,
      "stringId": 4,
      "playedAt": 1509335609929
    },
    {
      "header": 181,
      "timestamp": 255,
      "status": 148,
      "note": 47,
      "velocity": 112,
      "fret": 2,
      "stringId": 4,
      "playedAt": 1509335610941
    },
    {
      "header": 190,
      "timestamp": 133,
      "status": 147,
      "note": 52,
      "velocity": 101,
      "fret": 2,
      "stringId": 3,
      "playedAt": 1509335611976
    },
    {
      "header": 132,
      "timestamp": 146,
      "status": 147,
      "note": 52,
      "velocity": 109,
      "fret": 2,
      "stringId": 3,
      "playedAt": 1509335612752
    },
    {
      "header": 134,
      "timestamp": 169,
      "status": 147,
      "note": 55,
      "velocity": 125,
      "fret": 5,
      "stringId": 3,
      "playedAt": 1509335613034
    },
    {
      "header": 137,
      "timestamp": 160,
      "status": 147,
      "note": 52,
      "velocity": 109,
      "fret": 2,
      "stringId": 3,
      "playedAt": 1509335613405
    },
    {
      "header": 139,
      "timestamp": 254,
      "status": 147,
      "note": 50,
      "velocity": 75,
      "fret": 0,
      "stringId": 3,
      "playedAt": 1509335613753
    },
    {
      "header": 142,
      "timestamp": 184,
      "status": 148,
      "note": 48,
      "velocity": 91,
      "fret": 3,
      "stringId": 4,
      "playedAt": 1509335614069
    },
    {
      "header": 150,
      "timestamp": 189,
      "status": 148,
      "note": 47,
      "velocity": 102,
      "fret": 2,
      "stringId": 4,
      "playedAt": 1509335615104
    },
    {
      "header": 158,
      "timestamp": 187,
      "status": 147,
      "note": 52,
      "velocity": 101,
      "fret": 2,
      "stringId": 3,
      "playedAt": 1509335616128
    },
    {
      "header": 164,
      "timestamp": 171,
      "status": 147,
      "note": 52,
      "velocity": 83,
      "fret": 2,
      "stringId": 3,
      "playedAt": 1509335616870
    },
    {
      "header": 166,
      "timestamp": 153,
      "status": 147,
      "note": 55,
      "velocity": 83,
      "fret": 5,
      "stringId": 3,
      "playedAt": 1509335617118
    },
    {
      "header": 169,
      "timestamp": 184,
      "status": 147,
      "note": 52,
      "velocity": 103,
      "fret": 2,
      "stringId": 3,
      "playedAt": 1509335617534
    },
    {
      "header": 172,
      "timestamp": 157,
      "status": 147,
      "note": 50,
      "velocity": 79,
      "fret": 0,
      "stringId": 3,
      "playedAt": 1509335617883
    },
    {
      "header": 174,
      "timestamp": 218,
      "status": 148,
      "note": 48,
      "velocity": 87,
      "fret": 3,
      "stringId": 4,
      "playedAt": 1509335618197
    },
    {
      "header": 182,
      "timestamp": 238,
      "status": 148,
      "note": 47,
      "velocity": 102,
      "fret": 2,
      "stringId": 4,
      "playedAt": 1509335619244
    },
    {
      "header": 190,
      "timestamp": 238,
      "status": 147,
      "note": 52,
      "velocity": 89,
      "fret": 2,
      "stringId": 3,
      "playedAt": 1509335620268
    },
    {
      "header": 132,
      "timestamp": 234,
      "status": 147,
      "note": 52,
      "velocity": 95,
      "fret": 2,
      "stringId": 3,
      "playedAt": 1509335621033
    },
    {
      "header": 134,
      "timestamp": 219,
      "status": 147,
      "note": 55,
      "velocity": 95,
      "fret": 5,
      "stringId": 3,
      "playedAt": 1509335621285
    },
    {
      "header": 137,
      "timestamp": 214,
      "status": 147,
      "note": 52,
      "velocity": 101,
      "fret": 2,
      "stringId": 3,
      "playedAt": 1509335621651
    },
    {
      "header": 140,
      "timestamp": 170,
      "status": 147,
      "note": 50,
      "velocity": 79,
      "fret": 0,
      "stringId": 3,
      "playedAt": 1509335622000
    },
    {
      "header": 142,
      "timestamp": 254,
      "status": 148,
      "note": 48,
      "velocity": 99,
      "fret": 3,
      "stringId": 4,
      "playedAt": 1509335622338
    },
    {
      "header": 151,
      "timestamp": 137,
      "status": 148,
      "note": 47,
      "velocity": 104,
      "fret": 2,
      "stringId": 4,
      "playedAt": 1509335623373
    },
    {
      "header": 159,
      "timestamp": 157,
      "status": 147,
      "note": 52,
      "velocity": 79,
      "fret": 2,
      "stringId": 3,
      "playedAt": 1509335624408
    },
    {
      "header": 165,
      "timestamp": 147,
      "status": 147,
      "note": 52,
      "velocity": 95,
      "fret": 2,
      "stringId": 3,
      "playedAt": 1509335625173
    },
    {
      "header": 166,
      "timestamp": 252,
      "status": 147,
      "note": 55,
      "velocity": 95,
      "fret": 5,
      "stringId": 3,
      "playedAt": 1509335625409
    },
    {
      "header": 170,
      "timestamp": 158,
      "status": 147,
      "note": 52,
      "velocity": 99,
      "fret": 2,
      "stringId": 3,
      "playedAt": 1509335625824
    },
    {
      "header": 172,
      "timestamp": 148,
      "status": 147,
      "note": 50,
      "velocity": 99,
      "fret": 0,
      "stringId": 3,
      "playedAt": 1509335626072
    },
    {
      "header": 175,
      "timestamp": 172,
      "status": 148,
      "note": 48,
      "velocity": 89,
      "fret": 3,
      "stringId": 4,
      "playedAt": 1509335626478
    },
    {
      "header": 183,
      "timestamp": 186,
      "status": 148,
      "note": 47,
      "velocity": 108,
      "fret": 2,
      "stringId": 4,
      "playedAt": 1509335627524
    },
    {
      "header": 191,
      "timestamp": 195,
      "status": 149,
      "note": 43,
      "velocity": 125,
      "fret": 3,
      "stringId": 5,
      "playedAt": 1509335628548
    },
    {
      "header": 191,
      "timestamp": 211,
      "status": 148,
      "note": 50,
      "velocity": 120,
      "fret": 5,
      "stringId": 4,
      "playedAt": 1509335628559
    },
    {
      "header": 129,
      "timestamp": 198,
      "status": 149,
      "note": 43,
      "velocity": 125,
      "fret": 3,
      "stringId": 5,
      "playedAt": 1509335628807
    },
    {
      "header": 129,
      "timestamp": 216,
      "status": 148,
      "note": 50,
      "velocity": 121,
      "fret": 5,
      "stringId": 4,
      "playedAt": 1509335628829
    },
    {
      "header": 131,
      "timestamp": 244,
      "status": 149,
      "note": 43,
      "velocity": 125,
      "fret": 3,
      "stringId": 5,
      "playedAt": 1509335629110
    },
    {
      "header": 132,
      "timestamp": 153,
      "status": 148,
      "note": 50,
      "velocity": 74,
      "fret": 5,
      "stringId": 4,
      "playedAt": 1509335629155
    },
    {
      "header": 134,
      "timestamp": 142,
      "status": 149,
      "note": 43,
      "velocity": 125,
      "fret": 3,
      "stringId": 5,
      "playedAt": 1509335629392
    },
    {
      "header": 134,
      "timestamp": 155,
      "status": 148,
      "note": 50,
      "velocity": 101,
      "fret": 5,
      "stringId": 4,
      "playedAt": 1509335629402
    },
    {
      "header": 136,
      "timestamp": 154,
      "status": 149,
      "note": 43,
      "velocity": 125,
      "fret": 3,
      "stringId": 5,
      "playedAt": 1509335629685
    },
    {
      "header": 136,
      "timestamp": 166,
      "status": 148,
      "note": 50,
      "velocity": 120,
      "fret": 5,
      "stringId": 4,
      "playedAt": 1509335629695
    },
    {
      "header": 138,
      "timestamp": 150,
      "status": 149,
      "note": 43,
      "velocity": 125,
      "fret": 3,
      "stringId": 5,
      "playedAt": 1509335629910
    },
    {
      "header": 138,
      "timestamp": 175,
      "status": 148,
      "note": 50,
      "velocity": 41,
      "fret": 5,
      "stringId": 4,
      "playedAt": 1509335629932
    },
    {
      "header": 140,
      "timestamp": 186,
      "status": 149,
      "note": 43,
      "velocity": 101,
      "fret": 3,
      "stringId": 5,
      "playedAt": 1509335630201
    },
    {
      "header": 142,
      "timestamp": 142,
      "status": 149,
      "note": 43,
      "velocity": 95,
      "fret": 3,
      "stringId": 5,
      "playedAt": 1509335630415
    },
    {
      "header": 144,
      "timestamp": 150,
      "status": 148,
      "note": 45,
      "velocity": 125,
      "fret": 0,
      "stringId": 4,
      "playedAt": 1509335630675
    },
    {
      "header": 144,
      "timestamp": 150,
      "status": 147,
      "note": 52,
      "velocity": 40,
      "fret": 2,
      "stringId": 3,
      "playedAt": 1509335630675
    },
    {
      "header": 145,
      "timestamp": 252,
      "status": 148,
      "note": 45,
      "velocity": 125,
      "fret": 0,
      "stringId": 4,
      "playedAt": 1509335630911
    },
    {
      "header": 145,
      "timestamp": 252,
      "status": 147,
      "note": 52,
      "velocity": 41,
      "fret": 2,
      "stringId": 3,
      "playedAt": 1509335630911
    },
    {
      "header": 148,
      "timestamp": 137,
      "status": 148,
      "note": 45,
      "velocity": 125,
      "fret": 0,
      "stringId": 4,
      "playedAt": 1509335631181
    },
    {
      "header": 149,
      "timestamp": 254,
      "status": 148,
      "note": 45,
      "velocity": 125,
      "fret": 0,
      "stringId": 4,
      "playedAt": 1509335631428
    },
    {
      "header": 151,
      "timestamp": 247,
      "status": 148,
      "note": 45,
      "velocity": 123,
      "fret": 0,
      "stringId": 4,
      "playedAt": 1509335631675
    },
    {
      "header": 153,
      "timestamp": 243,
      "status": 148,
      "note": 45,
      "velocity": 125,
      "fret": 0,
      "stringId": 4,
      "playedAt": 1509335631923
    },
    {
      "header": 156,
      "timestamp": 147,
      "status": 148,
      "note": 45,
      "velocity": 78,
      "fret": 0,
      "stringId": 4,
      "playedAt": 1509335632215
    },
    {
      "header": 157,
      "timestamp": 217,
      "status": 148,
      "note": 45,
      "velocity": 68,
      "fret": 0,
      "stringId": 4,
      "playedAt": 1509335632406
    },
    {
      "header": 159,
      "timestamp": 254,
      "status": 145,
      "note": 64,
      "velocity": 120,
      "fret": 5,
      "stringId": 1,
      "playedAt": 1509335632699
    },
    {
      "header": 165,
      "timestamp": 217,
      "status": 145,
      "note": 64,
      "velocity": 122,
      "fret": 5,
      "stringId": 1,
      "playedAt": 1509335633430
    },
    {
      "header": 168,
      "timestamp": 130,
      "status": 144,
      "note": 67,
      "velocity": 104,
      "fret": 3,
      "stringId": 0,
      "playedAt": 1509335633735
    },
    {
      "header": 170,
      "timestamp": 230,
      "status": 145,
      "note": 64,
      "velocity": 113,
      "fret": 5,
      "stringId": 1,
      "playedAt": 1509335634083
    },
    {
      "header": 173,
      "timestamp": 249,
      "status": 145,
      "note": 62,
      "velocity": 125,
      "fret": 3,
      "stringId": 1,
      "playedAt": 1509335634488
    },
    {
      "header": 176,
      "timestamp": 166,
      "status": 145,
      "note": 60,
      "velocity": 125,
      "fret": 1,
      "stringId": 1,
      "playedAt": 1509335634792
    },
    {
      "header": 183,
      "timestamp": 248,
      "status": 146,
      "note": 59,
      "velocity": 125,
      "fret": 0,
      "stringId": 1,
      "playedAt": 1509335635770
    }
  ]
};